HIERARCHY
ROOT Reference
{
  OFFSET 0 0 0
  CHANNELS 6 Xposition Yposition Zposition Zrotation Xrotation Yrotation
  JOINT Hips
  {
    OFFSET 251.394 724.17 483.536
    CHANNELS 3 Zrotation Xrotation Yrotation
    JOINT RightUpLeg
    {
      OFFSET -0.450515 -23.4426 -1.37224
      CHANNELS 3 Zrotation Xrotation Yrotation
      JOINT RightLeg
      {
        OFFSET 112.821 0.0872427 -0.321027
        CHANNELS 3 Zrotation Xrotation Yrotation
        JOINT RightFoot
        {
          OFFSET 105.718 0.000193788 0.0213165
          CHANNELS 3 Zrotation Xrotation Yrotation
          JOINT RightToeBase
          {
            OFFSET 37.638 -0.000116272 0.00224792
            CHANNELS 3 Zrotation Xrotation Yrotation
            JOINT RightToeEnd
            {
              OFFSET 21.2112 0.114605 -0.000138184
              CHANNELS 3 Zrotation Xrotation Yrotation
              End Site
              {
                OFFSET 0 0 0
              }
            }
          }
        }
      }
    }
    JOINT LeftUpLeg
    {
      OFFSET -0.449508 23.4315 -1.37054
      CHANNELS 3 Zrotation Xrotation Yrotation
      JOINT LeftLeg
      {
        OFFSET 112.821 -0.0485242 -0.372458
        CHANNELS 3 Zrotation Xrotation Yrotation
        JOINT LeftFoot
        {
          OFFSET 105.716 0.00496094 -0.0229443
          CHANNELS 3 Zrotation Xrotation Yrotation
          JOINT LeftToeBase
          {
            OFFSET 37.639 0 0.00158905
            CHANNELS 3 Zrotation Xrotation Yrotation
            JOINT LeftToeEnd
            {
              OFFSET 21.2113 -0.125031 -0.00017438
              CHANNELS 3 Zrotation Xrotation Yrotation
              End Site
              {
                OFFSET 0 0 0
              }
            }
          }
        }
      }
    }
    JOINT Spine
    {
      OFFSET -5.01225 0.000463591 -9.60395
      CHANNELS 3 Zrotation Xrotation Yrotation
      JOINT Spine1
      {
        OFFSET 26.0222 -0.000271301 -0.000155029
        CHANNELS 3 Zrotation Xrotation Yrotation
        JOINT Spine2
        {
          OFFSET 27.173 -0.000155029 -0.000310058
          CHANNELS 3 Zrotation Xrotation Yrotation
          JOINT Spine3
          {
            OFFSET 36.3953 -0.000232544 7.75146e-005
            CHANNELS 3 Zrotation Xrotation Yrotation
            JOINT Neck
            {
              OFFSET 36.4331 0 -3.00261
              CHANNELS 3 Zrotation Xrotation Yrotation
              JOINT Head
              {
                OFFSET 23.0407 -0.000232544 -0.000310058
                CHANNELS 3 Zrotation Xrotation Yrotation
                End Site
                {
                  OFFSET 0 0 0
                }
              }
            }
            JOINT LeftShoulder
            {
              OFFSET 20.1317 6.74168 -12.6061
              CHANNELS 3 Zrotation Xrotation Yrotation
              JOINT LeftArm
              {
                OFFSET 34.2172 -5.81359e-005 7.75146e-005
                CHANNELS 3 Zrotation Xrotation Yrotation
                JOINT LeftForeArm
                {
                  OFFSET 65.4129 -0.0821605 0.0585235
                  CHANNELS 3 Zrotation Xrotation Yrotation
                  JOINT LeftHand
                  {
                    OFFSET 67.3883 0.0359667 0.0112396
                    CHANNELS 3 Zrotation Xrotation Yrotation
                    JOINT LeftHandThumb1
                    {
                      OFFSET 8.78386 2.85353 -6.05362
                      CHANNELS 3 Zrotation Xrotation Yrotation
                      JOINT LeftHandThumb2
                      {
                        OFFSET 8.25498 -0.000116272 -0.000174407
                        CHANNELS 3 Zrotation Xrotation Yrotation
                        JOINT LeftHandThumb3
                        {
                          OFFSET 7.24822 0.000310058 5.81358e-005
                          CHANNELS 3 Zrotation Xrotation Yrotation
                          JOINT LeftHandThumb4
                          {
                            OFFSET 7.0004 -3.87568e-005 -0.000310057
                            CHANNELS 3 Zrotation Xrotation Yrotation
                            End Site
                            {
                              OFFSET 0 0 0
                            }
                          }
                        }
                      }
                    }
                    JOINT LeftHandIndex1
                    {
                      OFFSET 24.0991 -1.01537 -5.40558
                      CHANNELS 3 Zrotation Xrotation Yrotation
                      JOINT LeftHandIndex2
                      {
                        OFFSET 7.26759 -0.000290679 -0.000465086
                        CHANNELS 3 Zrotation Xrotation Yrotation
                        JOINT LeftHandIndex3
                        {
                          OFFSET 7.13628 -1.93787e-005 0.000232543
                          CHANNELS 3 Zrotation Xrotation Yrotation
                          JOINT LeftHandIndex4
                          {
                            OFFSET 5.46699 9.68932e-005 -0.000387571
                            CHANNELS 3 Zrotation Xrotation Yrotation
                            End Site
                            {
                              OFFSET 0 0 0
                            }
                          }
                        }
                      }
                    }
                    JOINT LeftHandMiddle1
                    {
                      OFFSET 24.4604 -2.52837 0.918567
                      CHANNELS 3 Zrotation Xrotation Yrotation
                      JOINT LeftHandMiddle2
                      {
                        OFFSET 7.41627 -5.81359e-005 0.000116271
                        CHANNELS 3 Zrotation Xrotation Yrotation
                        JOINT LeftHandMiddle3
                        {
                          OFFSET 8.76829 3.87573e-005 -7.75142e-005
                          CHANNELS 3 Zrotation Xrotation Yrotation
                          JOINT LeftHandMiddle4
                          {
                            OFFSET 6.07588 -0.00013565 -5.81356e-005
                            CHANNELS 3 Zrotation Xrotation Yrotation
                            End Site
                            {
                              OFFSET 0 0 0
                            }
                          }
                        }
                      }
                    }
                    JOINT LeftHandRing1
                    {
                      OFFSET 22.465 -1.97467 6.3466
                      CHANNELS 3 Zrotation Xrotation Yrotation
                      JOINT LeftHandRing2
                      {
                        OFFSET 7.36666 -0.000232544 0.000387571
                        CHANNELS 3 Zrotation Xrotation Yrotation
                        JOINT LeftHandRing3
                        {
                          OFFSET 8.07624 -0.000465087 -0.000203475
                          CHANNELS 3 Zrotation Xrotation Yrotation
                          JOINT LeftHandRing4
                          {
                            OFFSET 6.04433 0.00013565 3.87571e-005
                            CHANNELS 3 Zrotation Xrotation Yrotation
                            End Site
                            {
                              OFFSET 0 0 0
                            }
                          }
                        }
                      }
                    }
                    JOINT LeftHandPinky1
                    {
                      OFFSET 19.5278 0.352933 10.4295
                      CHANNELS 3 Zrotation Xrotation Yrotation
                      JOINT LeftHandPinky2
                      {
                        OFFSET 6.16525 5.8136e-005 -0.000251921
                        CHANNELS 3 Zrotation Xrotation Yrotation
                        JOINT LeftHandPinky3
                        {
                          OFFSET 6.14448 -0.000329434 -0.00510625
                          CHANNELS 3 Zrotation Xrotation Yrotation
                          JOINT LeftHandPinky4
                          {
                            OFFSET 4.98555 0.000116272 0.000116271
                            CHANNELS 3 Zrotation Xrotation Yrotation
                            End Site
                            {
                              OFFSET 0 0 0
                            }
                          }
                        }
                      }
                    }
                  }
                }
              }
            }
            JOINT RightShoulder
            {
              OFFSET 20.1309 -6.74152 -12.6063
              CHANNELS 3 Zrotation Xrotation Yrotation
              JOINT RightArm
              {
                OFFSET 34.2171 7.75146e-005 7.75146e-005
                CHANNELS 3 Zrotation Xrotation Yrotation
                JOINT RightForeArm
                {
                  OFFSET 65.4492 0.242543 -0.176501
                  CHANNELS 3 Zrotation Xrotation Yrotation
                  JOINT RightHand
                  {
                    OFFSET 67.3888 -0.0867388 0.0597442
                    CHANNELS 3 Zrotation Xrotation Yrotation
                    JOINT RightHandThumb1
                    {
                      OFFSET 8.78307 -2.85357 -6.05302
                      CHANNELS 3 Zrotation Xrotation Yrotation
                      JOINT RightHandThumb2
                      {
                        OFFSET 8.25493 -7.75145e-005 0
                        CHANNELS 3 Zrotation Xrotation Yrotation
                        JOINT RightHandThumb3
                        {
                          OFFSET 7.24797 -0.000174408 0.000155029
                          CHANNELS 3 Zrotation Xrotation Yrotation
                          JOINT RightHandThumb4
                          {
                            OFFSET 7.00062 0 0
                            CHANNELS 3 Zrotation Xrotation Yrotation
                            End Site
                            {
                              OFFSET 0 0 0
                            }
                          }
                        }
                      }
                    }
                    JOINT RightHandIndex1
                    {
                      OFFSET 24.0991 1.01525 -5.40578
                      CHANNELS 3 Zrotation Xrotation Yrotation
                      JOINT RightHandIndex2
                      {
                        OFFSET 7.26773 7.75144e-005 0.000232543
                        CHANNELS 3 Zrotation Xrotation Yrotation
                        JOINT RightHandIndex3
                        {
                          OFFSET 7.13572 -0.000310058 3.87571e-005
                          CHANNELS 3 Zrotation Xrotation Yrotation
                          JOINT RightHandIndex4
                          {
                            OFFSET 5.46717 0 3.87572e-005
                            CHANNELS 3 Zrotation Xrotation Yrotation
                            End Site
                            {
                              OFFSET 0 0 0
                            }
                          }
                        }
                      }
                    }
                    JOINT RightHandMiddle1
                    {
                      OFFSET 24.4603 2.52899 0.918547
                      CHANNELS 3 Zrotation Xrotation Yrotation
                      JOINT RightHandMiddle2
                      {
                        OFFSET 7.41641 -0.000116272 -0.000116272
                        CHANNELS 3 Zrotation Xrotation Yrotation
                        JOINT RightHandMiddle3
                        {
                          OFFSET 8.76765 -3.87577e-005 0.000232543
                          CHANNELS 3 Zrotation Xrotation Yrotation
                          JOINT RightHandMiddle4
                          {
                            OFFSET 6.07609 -0.000193787 -0.000116271
                            CHANNELS 3 Zrotation Xrotation Yrotation
                            End Site
                            {
                              OFFSET 0 0 0
                            }
                          }
                        }
                      }
                    }
                    JOINT RightHandRing1
                    {
                      OFFSET 22.465 1.97571 6.34696
                      CHANNELS 3 Zrotation Xrotation Yrotation
                      JOINT RightHandRing2
                      {
                        OFFSET 7.36684 0.000193786 0.000155029
                        CHANNELS 3 Zrotation Xrotation Yrotation
                        JOINT RightHandRing3
                        {
                          OFFSET 8.07614 -0.000271301 0
                          CHANNELS 3 Zrotation Xrotation Yrotation
                          JOINT RightHandRing4
                          {
                            OFFSET 6.04468 0.000232543 0
                            CHANNELS 3 Zrotation Xrotation Yrotation
                            End Site
                            {
                              OFFSET 0 0 0
                            }
                          }
                        }
                      }
                    }
                    JOINT RightHandPinky1
                    {
                      OFFSET 19.5277 -0.352346 10.4296
                      CHANNELS 3 Zrotation Xrotation Yrotation
                      JOINT RightHandPinky2
                      {
                        OFFSET 6.16508 0 0.000232543
                        CHANNELS 3 Zrotation Xrotation Yrotation
                        JOINT RightHandPinky3
                        {
                          OFFSET 6.14396 -0.000155048 -0.0048834
                          CHANNELS 3 Zrotation Xrotation Yrotation
                          JOINT RightHandPinky4
                          {
                            OFFSET 4.98577 -7.75146e-005 -7.75143e-005
                            CHANNELS 3 Zrotation Xrotation Yrotation
                            End Site
                            {
                              OFFSET 0 0 0
                            }
                          }
                        }
                      }
                    }
                  }
                }
              }
            }
          }
        }
      }
    }
  }
}
MOTION
Frames:	4
Frame Time:	0.0333333
0 0 0 -90 -7.01671e-015 -180 94.912 45.6085 136.639 163.265 -33.8871 -117.697 -0.688426 -0.600217 -49.3425 -6.26032 2.59761 23.6859 -0.532593 0.232613 44.5407 1.01066e-005 -2.18313e-005 -86.4974 165.146 -31.3112 -28.2895 0.147464 0.0978324 -81.6542 -0.269541 1.44542 30.0905 0.579183 -0.13314 55.7421 1.85797e-005 -1.92609e-005 -86.4974 -0.234443 0.14783 128.47 -6.06763 -2.2598 -14.1896 -12.5907 -0.01546 -14.4764 -1.23806 5.12735 -4.50741 -0.83323 4.86263 42.5347 -15.3249 13.3068 41.9439 104.054 25.7111 -4.41522 40.2469 9.6283 44.3317 26.7009 6.27719 138.04 -35.7557 -34.688 53.7724 -149.824 -9.42198 146.382 0.000345532 1.77049e-005 2.56563 0.01289 -0.000567091 -3.21212 0.000251861 -0.00130661 -0.000137028 -85.9113 88.8893 90.9697 -0.000740429 -0.0010412 3.85983 0.00122928 -0.000456961 5.89252 -0.00105357 -0.000261162 -0.00969907 119.207 89.9407 -98.0968 2.13943e-005 -0.000181239 11.5773 0.000771586 -0.000270851 -0.551764 -0.000555829 -0.000322678 -0.00930953 102.162 88.3259 -76.9669 0.000108996 -0.00123879 15.3687 0.00142938 0.000481382 3.23963 -0.000641234 -0.000699616 -0.00872961 74.9981 83.3888 -42.607 0.00101913 -0.000813148 7.65739 -0.000167914 -5.23996e-005 3.23962 -0.000410663 2.86448e-005 -0.010019 -80.4709 -21.8604 -26.0387 -18.0613 36.7764 82.0619 16.1622 10.2392 62.3515 13.9654 21.1857 3.87372 155.672 22.6157 144.28 -5.66802e-005 1.65143e-005 2.20504 0.000216348 0.000127765 2.82163 1.49329e-005 -0.000137329 179.864 -66.2508 -88.5388 -57.6218 -0.000214309 -0.000106936 15.6399 0.000107501 7.80202e-005 16.7 0.000640867 -0.00119019 180 -2.91616 -88.8122 19.8839 -4.61538e-005 8.79504e-005 24.3321 8.03493e-005 -9.49871e-005 4.83943 0.00190734 -0.000595094 -180 -49.7458 -88.0721 -20.4289 8.57471e-006 0.000103024 19.7973 1.19532e-005 -6.37627e-005 10.8811 -7.0167e-015 -1.52588e-005 -180 -59.6543 -82.3442 -30.9482 1.13029e-005 0.00020885 15.4114 -4.21746e-005 -2.29764e-005 8.69144 0.0191192 1.52588e-005 -180 
0 0 0 -90 -7.01671e-015 -180 90.7271 46.5995 140.37 162.47 -34.604 -115.555 -0.707679 -0.645014 -48.05 -6.39629 2.20607 23.1429 -0.5342 0.228897 44.9398 1.02165e-005 -6.07474e-005 -86.4974 164.995 -30.6382 -28.144 0.15149 0.102838 -81.55 0.552776 1.95469 29.4221 0.580564 -0.126982 56.3503 1.82843e-005 -2.76011e-005 -86.4974 -0.246977 0.155481 128.515 -5.93817 -2.34339 -13.8548 -11.7087 0.0372875 -14.1977 -1.06074 4.41177 -5.15335 -1.92566 6.11459 43.5395 -15.2375 14.1607 41.9029 103.645 25.751 -4.15303 39.1147 7.35079 47.5976 27.4411 3.97673 140.373 -35.5856 -29.5853 57.9511 -149.856 -10.516 145.167 0.000347181 2.28193e-005 1.82274 0.000265135 0.000145765 -4.47651 0.000251861 -0.00135387 -0.000137027 -92.1046 88.3317 95.1312 -0.000763782 -0.00102955 2.54374 0.00121556 -0.000463506 4.78586 -0.00105357 -0.000369536 -0.00969907 113.47 89.9491 -93.8748 1.70228e-005 -0.000174582 10.2612 0.000753249 -0.000270981 -2.38411 -0.00055583 -0.00039912 -0.00930953 99.9123 88.0325 -76.2111 7.732e-005 -0.00124348 14.0525 0.00141208 0.000470759 1.4073 -0.000641234 -0.000772463 -0.0087296 75.3134 82.6668 -44.1784 0.000993427 -0.000817358 5.86441 0.00837183 0.000155443 1.3882 -0.000410664 -4.29506e-005 -0.010019 -80.4259 -22.0275 -25.0988 -17.7276 37.4695 81.1419 15.9143 12.4767 63.6805 16.1708 17.8051 1.90341 155.163 21.6563 144.308 -5.76633e-005 1.49925e-005 2.10542 0.000217797 0.000128306 2.03612 1.49303e-005 -0.000137329 179.863 -61.1999 -88.8532 -53.26 -0.000218133 -0.000131021 14.3072 0.000108469 8.47284e-005 15.4801 0.000640867 -0.00128174 180 -2.46447 -88.9237 19.9057 -4.37768e-005 8.95501e-005 22.9082 8.08199e-005 -9.52113e-005 4.02622 0.00202941 -0.000564576 -180 -54.2271 -88.1218 -25.5599 1.02993e-005 0.000105549 19.1522 1.04878e-005 -5.56809e-005 9.84479 -7.01672e-015 -6.10353e-005 180 -60.9984 -82.3194 -32.2087 1.6464e-005 0.000206426 14.3586 -3.85629e-005 -2.00156e-005 7.87265 0.0189819 1.52588e-005 -180 
0 0 0 -90 -7.01671e-015 -180 86.5037 47.5994 144.11 162.071 -35.7111 -113.262 -0.720091 -0.698296 -46.2796 -5.89216 2.08472 23.0069 -0.536169 0.224254 45.4371 1.05151e-005 -0.000136365 -86.4974 165.078 -29.9616 -28.0494 0.156388 0.108165 -81.3698 0.581644 2.04532 29.3993 0.580983 -0.125056 56.5405 1.9116e-005 -4.44773e-005 -86.4974 -0.259572 0.163573 128.488 -5.55851 -2.28671 -13.5842 -10.7533 0.103558 -13.9534 -0.876907 3.49743 -5.6464 -3.09049 7.33767 44.4457 -14.8961 14.6893 42.0482 103.281 25.7807 -3.9694 38.1639 4.59649 50.6196 27.6728 0.766673 142.277 -36.503 -25.0351 60.349 -150.009 -11.5738 144.347 0.000345469 2.11611e-005 1.34426 0.000265896 0.000143443 -5.28882 0.000251862 -0.00144842 -0.000137027 -94.9162 87.967 96.6281 -0.000778162 -0.00102194 1.69209 0.00120565 -0.000462724 4.06982 -0.0011478 -0.000206521 -0.00951173 109.804 89.968 -91.19 1.88494e-005 -0.000169787 9.40957 0.000743053 -0.000272366 -3.56975 -0.000558391 -0.000321826 -0.00915884 98.0981 87.8371 -75.3635 6.1713e-005 -0.00124327 13.2009 0.00140052 0.000462067 0.221648 -0.000644649 -0.000701754 -0.00858105 74.8843 82.148 -44.6891 0.000979364 -0.000818788 4.70427 -0.000234311 -6.0221e-005 0.221632 -0.0004875 5.04177e-005 -0.00990398 -80.3168 -22.195 -24.1141 -17.5437 38.4595 80.572 15.547 14.8978 64.7637 18.1609 13.1807 -0.410803 154.677 20.7408 144.322 -5.93878e-005 1.24441e-005 2.01397 0.000217892 0.000129543 1.27466 1.49278e-005 -0.000137329 179.862 -53.2757 -89.1472 -46.0042 -0.000219526 -0.000154422 13.0152 0.000110552 8.41999e-005 14.3338 0.000762938 -0.00119019 180 -2.05132 -89.0306 19.9079 -3.90649e-005 8.73882e-005 21.5279 7.89583e-005 -9.61175e-005 3.21302 0.00202941 -0.000625611 -180 -58.8016 -88.1547 -30.7638 1.52934e-005 0.000102707 18.5267 1.2546e-005 -4.69909e-005 8.84019 -7.01672e-015 -0.000122071 180 -62.3334 -82.2907 -33.4601 2.09833e-005 0.000202597 13.3694 -3.95028e-005 -2.06998e-005 7.05385 0.0188293 1.52588e-005 180 
0 0 0 -90 -7.01671e-015 -180 82.2809 48.447 147.803 161.954 -36.8461 -111.046 -0.724517 -0.759764 -44.0402 -5.20803 1.97855 23.0018 -0.536131 0.224346 45.4272 1.21874e-005 1.24472e-005 -86.4974 165.394 -29.2316 -27.9271 0.156168 0.112211 -81.3006 0.135181 2.2205 29.3493 0.580624 -0.126704 56.378 2.02609e-005 -7.79237e-005 -86.4974 -0.272303 0.171906 128.449 -5.17493 -2.24148 -13.4251 -9.78507 0.260675 -13.724 -0.744764 2.84568 -6.27425 -4.04264 8.03902 45.725 -14.2374 14.8853 42.1768 102.762 25.8068 -3.85516 37.3121 1.94553 53.5417 28.1677 -2.69901 143.414 -37.3843 -20.5579 62.0056 -150.267 -12.5762 143.995 0.000347103 2.31148e-005 1.17494 0.000266528 0.000145056 -5.5775 0.00025186 -0.00126102 -0.000139162 -95.7971 87.8368 97.0418 -0.000780881 -0.0010199 1.38949 0.00120257 -0.000465881 3.81534 -0.0011478 -0.000317658 -0.00951173 19.2616 89.9998 -0.99713 1.99118e-005 -0.000167282 9.10694 0.000738057 -0.000272183 -3.99109 -0.000558392 -0.000393707 -0.00915883 96.6716 87.7587 -74.2812 5.6916e-005 -0.00124268 12.8983 0.00139655 0.000459411 -0.199696 -0.000644648 -0.00077591 -0.00858105 73.8535 81.8724 -44.218 0.000972308 -0.000821059 4.292 -0.000243382 -5.85028e-005 -0.199711 -0.000487499 -1.93216e-005 -0.00990397 -80.0698 -22.3123 -23.3319 -16.8817 39.6685 79.6213 15.7284 16.3165 65.1234 20.0189 11.1346 -2.07088 154.207 19.8586 144.326 -5.76506e-005 1.27989e-005 1.92253 0.000219759 0.000131959 0.53974 1.49252e-005 -0.000137329 179.861 -39.0357 -89.406 -32.4095 -0.000223958 -0.000169356 11.7683 0.000110868 8.25266e-005 13.1875 0.000762938 -0.00122071 180 -1.65671 -89.1339 19.906 -4.4726e-005 8.14496e-005 20.1957 7.86642e-005 -0.000102009 2.44034 0.00215148 -0.000595094 -180 -63.3609 -88.1715 -35.9302 1.59298e-005 0.000100161 17.923 1.22742e-005 -4.10065e-005 7.87065 -7.0167e-015 -0.000198365 -180 -63.6583 -82.2581 -34.7014 2.70828e-005 0.000196985 12.3801 -3.92072e-005 -1.7132e-005 6.29129 0.0186767 1.52588e-005 180 
